<svg width="38" height="38" viewBox="0 0 38 38" fill="none" xmlns="http://www.w3.org/2000/svg">
<path d="M16.2856 21.7142H2.71427C1.94523 21.7142 1.30059 21.4541 0.780354 20.9338C0.260118 20.4136 0 19.769 0 18.9999C0 18.2309 0.260118 17.5862 0.780354 17.066C1.30059 16.5458 1.94523 16.2856 2.71427 16.2856H16.2856V2.71427C16.2856 1.94523 16.5458 1.30059 17.066 0.780354C17.5862 0.260118 18.2309 0 18.9999 0C19.769 0 20.4136 0.260118 20.9338 0.780354C21.4541 1.30059 21.7142 1.94523 21.7142 2.71427V16.2856H35.2856C36.0546 16.2856 36.6992 16.5458 37.2195 17.066C37.7397 17.5862 37.9998 18.2309 37.9998 18.9999C37.9998 19.769 37.7397 20.4136 37.2195 20.9338C36.6992 21.4541 36.0546 21.7142 35.2856 21.7142H21.7142V35.2856C21.7142 36.0546 21.4541 36.6992 20.9338 37.2195C20.4136 37.7397 19.769 37.9998 18.9999 37.9998C18.2309 37.9998 17.5862 37.7397 17.066 37.2195C16.5458 36.6992 16.2856 36.0546 16.2856 35.2856V21.7142Z" fill="white"/>
</svg>
